<?xml version="1.0" standalone="no"?>
<!DOCTYPE svg PUBLIC "-//W3C//DTD SVG 20010904//EN"
 "http://www.w3.org/TR/2001/REC-SVG-20010904/DTD/svg10.dtd">
<svg version="1.0" xmlns="http://www.w3.org/2000/svg"
 width="400.000000pt" height="400.000000pt" viewBox="0 0 400.000000 400.000000"
 preserveAspectRatio="xMidYMid meet">

<g transform="translate(0.000000,400.000000) scale(0.100000,-0.100000)"
fill="#F0F0F0" stroke="none">
<path d="M662 2463 c-28 -25 -252 -407 -252 -430 0 -10 20 -49 43 -88 l42 -70
259 0 259 0 38 60 c63 101 76 95 -206 95 -135 0 -245 3 -245 8 0 4 35 66 78
137 l78 130 271 5 c149 3 275 8 278 12 10 10 -62 136 -85 148 -11 6 -122 10
-278 10 -233 0 -262 -2 -280 -17z"/>
<path d="M1757 2468 c-92 -24 -139 -134 -107 -248 12 -45 63 -94 114 -110 46
-15 168 -9 209 10 26 13 27 15 27 97 l0 83 -80 0 c-73 0 -80 -2 -80 -20 0 -23
28 -40 64 -40 23 0 26 -4 26 -35 0 -31 -3 -35 -36 -41 -60 -11 -114 1 -147 35
-27 26 -30 37 -30 88 0 69 20 106 65 122 43 15 115 13 163 -4 22 -8 41 -15 43
-15 2 0 2 12 0 28 -6 54 -122 79 -231 50z"/>
<path d="M2046 2444 c-10 -9 -15 -23 -12 -31 3 -8 6 -17 6 -19 0 -2 14 -4 30
-4 34 0 49 23 33 49 -14 23 -38 25 -57 5z"/>
<path d="M2053 2344 c-9 -4 -13 -38 -13 -120 l0 -114 35 0 36 0 -3 118 c-3
109 -4 117 -23 119 -11 1 -26 -1 -32 -3z"/>
<path d="M2150 2332 c0 -30 21 -42 80 -42 l55 -1 -68 -62 c-52 -48 -67 -68
-67 -89 l0 -28 115 0 115 0 0 25 c0 24 -2 25 -76 25 l-76 0 71 66 c59 55 71
72 69 93 l-3 26 -107 3 c-99 2 -108 1 -108 -16z"/>
<path d="M2453 2340 c-13 -6 -23 -18 -23 -30 0 -18 6 -20 63 -20 58 0 87 -11
87 -32 0 -4 -25 -8 -56 -8 -83 0 -114 -20 -114 -76 0 -47 31 -70 91 -67 77 4
92 4 119 1 25 -3 25 -2 28 78 3 100 -7 131 -53 149 -38 17 -108 19 -142 5z
m125 -157 c-4 -24 -54 -38 -85 -24 -38 17 -12 41 44 41 36 0 44 -3 41 -17z"/>
<path d="M1715 2005 c-43 -23 -55 -43 -55 -90 0 -52 35 -88 100 -105 25 -6 55
-18 68 -26 27 -18 29 -59 3 -74 -26 -13 -94 -13 -142 2 -45 13 -54 8 -44 -22
9 -29 62 -50 125 -50 102 0 157 46 147 123 -7 51 -33 74 -120 102 -50 16 -63
25 -65 43 -6 42 15 55 83 49 33 -2 68 -7 78 -12 25 -11 23 27 -4 51 -28 25
-133 31 -174 9z"/>
<path d="M1379 1983 c-13 -16 -12 -17 4 -4 9 7 17 15 17 17 0 8 -8 3 -21 -13z"/>
<path d="M2492 1944 c-5 -9 -7 -25 -5 -35 4 -12 -2 -18 -19 -21 -31 -4 -39
-47 -9 -55 18 -4 21 -13 22 -57 0 -83 17 -119 61 -130 50 -13 88 4 88 39 0 22
-3 25 -25 19 -39 -10 -55 11 -55 72 l0 53 38 3 c32 3 37 6 37 28 0 22 -5 25
-37 28 -33 3 -37 6 -40 35 -2 24 -8 33 -25 35 -12 2 -25 -4 -31 -14z"/>
<path d="M1933 1882 c-8 -5 2 -39 35 -117 25 -61 50 -113 56 -117 15 -10 -11
-54 -41 -67 -14 -6 -34 -9 -44 -6 -26 9 -26 -31 0 -45 53 -28 106 2 147 81 48
95 114 260 109 270 -4 5 -17 9 -31 9 -21 0 -29 -10 -55 -66 -16 -37 -32 -77
-35 -91 -8 -32 -15 -23 -48 62 -15 39 -32 76 -38 83 -12 13 -37 16 -55 4z"/>
<path d="M2252 1880 c-28 -12 -46 -51 -38 -83 6 -25 29 -38 104 -57 67 -17 48
-35 -38 -35 -77 0 -90 -8 -66 -40 11 -15 27 -19 83 -19 88 -1 123 18 123 69 0
41 -32 70 -89 79 -83 13 -58 50 27 40 48 -6 52 -5 52 15 0 14 -9 25 -26 31
-31 12 -101 12 -132 0z"/>
<path d="M2720 1872 c-43 -21 -60 -53 -60 -115 0 -40 5 -54 28 -77 47 -47 170
-52 214 -8 20 20 20 45 0 41 -6 -2 -36 -6 -66 -9 -45 -5 -61 -3 -83 12 l-28
19 95 5 c94 5 95 5 98 32 10 89 -105 147 -198 100z m118 -54 c22 -22 12 -28
-48 -28 -58 0 -60 1 -50 20 12 23 78 28 98 8z"/>
<path d="M2950 1771 l0 -121 30 0 30 0 0 64 c0 88 12 116 48 116 44 0 52 -16
52 -102 l0 -78 35 0 35 0 0 78 c0 86 8 102 52 102 36 0 48 -28 48 -116 l0 -64
30 0 30 0 0 94 c0 75 -4 98 -18 116 -24 30 -93 38 -127 16 -24 -16 -28 -16
-50 -2 -30 20 -71 20 -107 2 -14 -8 -30 -10 -35 -6 -4 4 -18 11 -30 15 -23 6
-23 6 -23 -114z"/>
<path d="M3420 1879 c-31 -13 -40 -26 -40 -66 0 -39 25 -59 87 -69 49 -8 75
-30 48 -40 -9 -4 -45 -4 -81 -1 -58 6 -64 4 -64 -12 0 -27 22 -41 76 -47 103
-12 169 40 133 104 -11 20 -29 31 -74 43 -32 8 -60 20 -62 26 -6 16 39 24 92
16 42 -5 47 -4 43 13 -7 38 -97 57 -158 33z"/>
<path d="M1235 1819 c-22 -4 -183 -8 -358 -8 -257 -1 -319 -4 -323 -14 -8 -22
66 -137 95 -148 14 -6 133 -9 279 -7 l254 3 27 32 c40 48 95 153 79 152 -7 -1
-31 -5 -53 -10z"/>
</g>
</svg>
